<svg xmlns="http://www.w3.org/2000/svg" width="256" height="256" viewBox="0 0 100 100"><rect width="100" height="100" rx="50" fill="#0e3860"></rect><path fill="#fff" d="M19.06 30.87L19.06 30.87Q19.77 30.87 26.80 30.52L26.80 30.52Q26.91 30.75 26.88 31.43Q26.86 32.10 26.68 32.10L26.68 32.10Q25.68 32.10 24.42 32.60Q23.16 33.10 23.16 34.09L23.16 34.09Q23.16 34.74 23.81 35.85L23.81 35.85L30.37 48.27Q30.66 48.56 30.96 48.15L30.96 48.15Q38.93 36.08 38.93 34.03L38.93 34.03Q38.93 33.39 37.75 32.74Q36.58 32.10 34.88 32.10L34.88 32.10Q34.65 32.10 34.65 31.43Q34.65 30.75 34.88 30.52L34.88 30.52Q41.39 30.87 41.80 30.87L41.80 30.87Q43.61 30.87 45.55 30.69Q47.48 30.52 48.01 30.52L48.01 30.52Q48.13 30.87 48.13 31.40L48.13 31.40Q48.13 32.10 47.89 32.10L47.89 32.10Q47.19 32.10 45.43 32.63Q43.67 33.15 43.09 33.92L43.09 33.92Q40.86 37.37 36.61 44.40Q32.36 51.44 32.36 52.26L32.36 52.26L32.36 61.16Q32.36 64.79 32.83 66.61L32.83 66.61Q32.95 67.02 34.41 67.46Q35.88 67.90 36.41 67.90L36.41 67.90Q36.64 67.90 36.64 68.66L36.64 68.66Q36.64 69.13 36.52 69.48L36.52 69.48Q30.66 69.19 29.96 69.19L29.96 69.19Q29.79 69.19 23.05 69.48L23.05 69.48Q22.81 69.25 22.81 68.66L22.81 68.66Q22.81 67.90 23.05 67.90L23.05 67.90Q23.75 67.90 25.19 67.49Q26.62 67.08 26.80 66.61L26.80 66.61Q27.27 64.79 27.27 60.99L27.27 60.99L27.27 53.66Q27.27 52.84 26.01 50.41Q24.75 47.98 18.71 37.14L18.71 37.14Q17.77 35.38 17.28 34.71Q16.78 34.03 15.84 33.39L15.84 33.39Q15.20 32.92 13.91 32.51Q12.62 32.10 12.03 32.10L12.03 32.10Q11.80 32.10 11.80 31.46L11.80 31.46Q11.80 30.75 12.03 30.52L12.03 30.52Q12.97 30.58 15.20 30.72Q17.42 30.87 19.06 30.87ZM78.65 61.40L78.65 61.40L78.65 51.08Q78.65 51.08 78.54 50.85L78.54 50.85Q73.03 50.73 69.86 50.73L69.86 50.73Q60.84 50.73 60.84 51.03L60.84 51.03L60.84 61.16Q60.84 64.56 61.37 66.61L61.37 66.61Q61.48 67.02 63.01 67.40Q64.53 67.78 65.12 67.78L65.12 67.78Q65.29 67.78 65.32 68.49Q65.35 69.19 65.23 69.48L65.23 69.48Q59.38 69.19 58.44 69.19L58.44 69.19Q58.14 69.19 51.41 69.48L51.41 69.48Q51.17 69.25 51.17 68.60L51.17 68.60Q51.17 67.78 51.41 67.78L51.41 67.78Q52.17 67.78 53.66 67.43Q55.16 67.08 55.33 66.61L55.33 66.61Q55.74 65.03 55.74 61.40L55.74 61.40L55.74 38.66Q55.74 35.03 55.33 33.45L55.33 33.45Q55.16 32.98 53.66 32.60Q52.17 32.22 51.41 32.22L51.41 32.22Q51.17 32.22 51.17 31.46L51.17 31.46Q51.17 30.75 51.41 30.52L51.41 30.52Q52.17 30.58 54.51 30.72Q56.86 30.87 58.44 30.87L58.44 30.87Q59.61 30.87 60.72 30.81Q61.84 30.75 63.13 30.66Q64.41 30.58 65.23 30.52L65.23 30.52Q65.35 30.75 65.32 31.48Q65.29 32.22 65.12 32.22L65.12 32.22Q64.53 32.22 63.01 32.63Q61.48 33.04 61.37 33.45L61.37 33.45Q60.84 35.50 60.84 38.90L60.84 38.90L60.84 47.63L60.96 47.80Q66.70 47.92 69.86 47.92L69.86 47.92Q73.26 47.92 78.54 47.80L78.54 47.80Q78.65 47.69 78.65 47.57L78.65 47.57L78.65 38.66Q78.65 35.03 78.24 33.45L78.24 33.45Q78.07 32.98 76.57 32.60Q75.08 32.22 74.32 32.22L74.32 32.22Q74.08 32.22 74.08 31.48Q74.08 30.75 74.32 30.52L74.32 30.52Q75.02 30.58 77.42 30.72Q79.82 30.87 81.41 30.87L81.41 30.87Q82.52 30.87 83.63 30.81Q84.75 30.75 86.01 30.66Q87.27 30.58 88.09 30.52L88.09 30.52Q88.20 30.87 88.20 31.40L88.20 31.40Q88.20 32.22 87.97 32.22L87.97 32.22Q87.38 32.22 85.86 32.63Q84.34 33.04 84.22 33.45L84.22 33.45Q83.75 35.26 83.75 38.90L83.75 38.90L83.75 61.16Q83.75 64.79 84.22 66.61L84.22 66.61Q84.34 67.02 85.86 67.40Q87.38 67.78 87.97 67.78L87.97 67.78Q88.20 67.78 88.20 68.66L88.20 68.66Q88.20 69.13 88.09 69.48L88.09 69.48Q82.23 69.19 81.41 69.19L81.41 69.19Q81.05 69.19 74.32 69.48L74.32 69.48Q74.08 69.25 74.08 68.52Q74.08 67.78 74.32 67.78L74.32 67.78Q75.08 67.78 76.57 67.43Q78.07 67.08 78.24 66.61L78.24 66.61Q78.65 65.03 78.65 61.40Z"></path></svg>